<?xml version="1.0" encoding="UTF-8" standalone="no"?>
<!-- Created with Inkscape (http://www.inkscape.org/) -->

<svg
   width="210mm"
   height="299mm"
   viewBox="0 0 210 299"
   version="1.1"
   id="svg5"
   inkscape:version="1.1.1 (3bf5ae0d25, 2021-09-20)"
   sodipodi:docname="enemy1.svg"
   inkscape:export-filename="D:\Godot\Amaeba\assets\enemy1.png"
   inkscape:export-xdpi="96"
   inkscape:export-ydpi="96"
   xmlns:inkscape="http://www.inkscape.org/namespaces/inkscape"
   xmlns:sodipodi="http://sodipodi.sourceforge.net/DTD/sodipodi-0.dtd"
   xmlns="http://www.w3.org/2000/svg"
   xmlns:svg="http://www.w3.org/2000/svg">
  <sodipodi:namedview
     id="namedview7"
     pagecolor="#ffffff"
     bordercolor="#666666"
     borderopacity="1.0"
     inkscape:pageshadow="2"
     inkscape:pageopacity="0.0"
     inkscape:pagecheckerboard="0"
     inkscape:document-units="mm"
     showgrid="false"
     inkscape:zoom="0.72337262"
     inkscape:cx="202.52356"
     inkscape:cy="564.71588"
     inkscape:window-width="1920"
     inkscape:window-height="1001"
     inkscape:window-x="1911"
     inkscape:window-y="116"
     inkscape:window-maximized="1"
     inkscape:current-layer="layer1" />
  <defs
     id="defs2">
    <inkscape:path-effect
       effect="bspline"
       id="path-effect504"
       is_visible="true"
       lpeversion="1"
       weight="33.333333"
       steps="2"
       helper_size="0"
       apply_no_weight="true"
       apply_with_weight="true"
       only_selected="false" />
  </defs>
  <g
     inkscape:label="Layer 1"
     inkscape:groupmode="layer"
     id="layer1"
     style="display:inline">
    <ellipse
       style="fill:#ffe680;stroke-width:0.264583"
       id="path615"
       cx="44.623154"
       cy="57.242001"
       rx="12.070197"
       ry="36.02771" />
    <ellipse
       style="fill:#c83737;stroke-width:0.264583"
       id="path685"
       cx="43.708748"
       cy="43.525864"
       rx="4.9378076"
       ry="5.4864531" />
    <ellipse
       style="fill:#bcd35f;stroke-width:0.264583"
       id="path753"
       cx="48.646549"
       cy="70.775246"
       rx="2.5603449"
       ry="3.1089902" />
    <path
       style="fill:#917c6f;stroke-width:0.264583"
       id="path1476"
       d="m 37.347542,82.603132 c -1.25041,0.56834 -2.516082,1.11485 -3.694843,1.82345 -1.025305,0.65787 -1.602245,1.69152 -2.119061,2.76067 -1.024541,2.28498 -0.596707,4.24781 -0.497779,6.85531 0.548002,1.05303 1.502174,1.77558 2.348108,2.57463 0.798296,0.6358 1.171972,1.41906 1.336495,2.40136 0.15688,1.463288 0.147392,1.522098 0.02291,-2.88105 -0.0048,-0.17095 -0.01767,0.3429 -0.0523,0.51038 -0.118708,0.57436 -0.43077,1.04121 -0.752255,1.51733 -1.014619,1.32884 -2.447626,2.195998 -3.925723,2.920418 -1.331146,0.63877 -2.743722,1.07395 -4.189625,1.35707 -0.938559,0.25633 -1.90052,0.40192 -2.835746,0.66821 -1.004662,0.27001 -2.008936,0.56256 -2.934043,1.04541 -0.619821,0.3933 -0.924611,1.04286 -1.21666,1.68786 -0.4038,1.02728 -0.470308,2.15304 -0.611945,3.23946 -0.0735,0.55719 -0.122541,1.11693 -0.168468,1.67689 0,0 0.583981,3.86997 0.583981,3.86997 v 0 c 0.03662,-0.56718 0.07625,-1.13426 0.144621,-1.69874 0.129304,-1.06281 0.223348,-2.14654 0.511278,-3.17787 0.23618,-0.59846 0.48941,-1.21743 0.960358,-1.66847 0.864759,-0.5368 1.85955,-0.81339 2.838183,-1.06537 0.929068,-0.25845 1.888458,-0.37982 2.8063,-0.68433 1.47542,-0.3089 2.926258,-0.74251 4.287766,-1.39866 1.51374,-0.74546 3.011467,-1.58643 4.115396,-2.89443 1.648333,-2.100578 1.443304,-3.991188 0.946811,-6.907428 -0.2604,-0.99267 -0.768255,-1.76335 -1.573369,-2.41373 -0.817726,-0.76095 -1.747792,-1.47266 -2.126805,-2.5658 -0.134173,6.46174 -0.322077,2.6826 0.424963,0.89537 0.452001,-1.03838 0.978535,-2.03466 1.896356,-2.73196 1.115404,-0.74275 2.35117,-1.29204 3.602273,-1.76445 0,0 -0.127185,-3.9515 -0.127185,-3.9515 z" />
    <path
       style="fill:#917c6f;stroke-width:0.264583"
       id="path1478"
       d="m 52.447614,84.728852 c 1.144559,0.39211 2.394347,0.51245 3.492505,1.0417 0.228233,0.10999 0.433594,0.2622 0.650391,0.39331 1.007639,0.72285 1.432002,1.79342 1.597388,2.97825 0.0883,1.37016 0.136805,2.28883 0.009,-2.63616 -0.0055,-0.21215 -0.02312,0.42383 -0.03881,0.63546 -0.04526,0.611 -0.109976,1.22095 -0.165063,1.83112 -0.09076,1.11881 -0.12107,2.24107 -0.137361,3.36302 0.01794,1.45278 -0.01754,2.90719 0.05383,4.35832 0.03727,0.75783 1.471414,2.42055 1.969714,2.98503 0.976747,1.025898 2.177481,1.803458 3.384764,2.529958 0.663192,0.41914 1.259626,0.76382 1.440262,1.56292 0.261999,1.08484 0.430671,2.19493 0.61087,3.29776 0.07979,0.99934 0.306872,1.96276 0.587159,2.92114 0.09758,0.57446 0.332359,1.04528 0.716343,1.47378 0,0 0.357227,-3.92443 0.357227,-3.92443 v 0 c -0.290981,-0.44095 -0.451374,-0.92417 -0.56837,-1.43932 -0.266959,-0.94978 -0.41779,-1.9178 -0.546595,-2.89509 -0.195966,-1.11942 -0.336052,-2.25842 -0.67316,-3.345398 -0.358299,-0.75044 -1.011013,-1.14032 -1.712677,-1.5515 -1.173615,-0.70271 -2.344479,-1.44464 -3.261863,-2.47505 -0.484135,-0.59214 -0.981797,-1.19476 -1.339525,-1.87651 -0.710051,-1.35321 -0.443312,-3.8609 -0.41022,2.24448 0.0096,-1.12345 0.02922,-2.24735 0.106907,-3.36853 0.208553,-2.51197 0.547524,-5.0491 0.160155,-7.56729 -0.274201,-1.22592 -0.845878,-2.27476 -1.938528,-2.96444 -0.238945,-0.13057 -0.468164,-0.28078 -0.716833,-0.39172 -1.115422,-0.49764 -2.362607,-0.63749 -3.476902,-1.13839 0,0 -0.150662,3.95758 -0.150662,3.95758 z" />
    <path
       style="fill:#917c6f;stroke-width:0.264583"
       id="path1480"
       d="m 44.288388,90.057312 c -0.765754,1.00491 -1.629574,1.92837 -2.346716,2.97459 -0.735791,1.01532 -1.072507,2.21463 -1.333805,3.42258 -0.237408,1.36402 -0.283776,2.7502 -0.310782,4.131348 0.08387,2.50376 -0.199252,5.40286 0.886119,7.80694 0.138753,0.30733 0.312875,0.59744 0.46931,0.89616 0.874112,1.54538 2.107017,2.84333 3.043047,4.34492 0.763016,1.17701 1.052906,2.50393 1.267296,3.86742 0.164819,1.33055 0.18693,2.67243 0.194733,4.01134 -0.201988,-6.57415 0.22574,-3.91076 -0.157686,-2.68015 -0.109157,0.35033 -0.337979,0.6551 -0.532096,0.96091 -0.428305,0.65458 -1.088512,1.10424 -1.676508,1.60494 -0.58405,0.51387 -1.091893,1.11244 -1.687965,1.61133 -0.484876,0.3715 -0.882444,0.83049 -1.186225,1.3578 -0.38866,0.64501 -0.50541,1.37278 -0.574614,2.10919 -0.112234,1.69749 -0.03467,3.40145 0.01005,5.10054 0.0084,0.32 0.135165,0.68668 0.185375,1.00551 0.206885,0.7998 0.706681,1.37945 1.409684,1.78382 0.274635,0.19723 0.578178,0.34628 0.869709,0.51608 0,0 0.207283,-3.93764 0.207283,-3.93764 v 0 c -0.287653,-0.16641 -0.579628,-0.32618 -0.855941,-0.51132 -0.606978,-0.42264 -0.96684,-1.01923 -1.07832,-1.75597 -0.0011,-0.006 -0.11522,-0.65248 -0.116271,-0.65928 -0.0173,-0.11195 -0.04254,-0.45012 -0.04499,-0.33686 -0.138191,6.40165 -0.03411,4.07481 -0.0011,2.68082 0.03974,-0.70588 0.08315,-1.42283 0.403619,-2.06796 0.284425,-0.5022 0.568259,-0.98673 1.032656,-1.35096 0.63445,-0.46439 1.129107,-1.09503 1.703795,-1.62943 0.610431,-0.52061 1.296053,-0.9768 1.796854,-1.60795 0.198998,-0.32261 0.471601,-0.62956 0.638712,-0.96908 0.756142,-1.53628 -0.80827,-3.87097 0.261191,-5.08565 -0.02125,-1.33241 -0.05994,-2.66848 -0.260466,-3.98823 -0.255053,-1.38377 -0.613227,-2.72257 -1.424056,-3.89771 -0.986237,-1.43835 -2.188522,-2.72942 -3.002574,-4.28398 -0.384646,-0.82911 -0.463952,-0.90633 -0.700754,-1.76343 -0.392457,-1.42048 -0.591484,-5.609918 -0.477568,0.71059 0.01683,-1.37656 0.04602,-2.75694 0.24084,-4.12214 0.217159,-1.185118 0.504928,-2.388138 1.186603,-3.400808 0.667541,-1.06948 1.483842,-2.01772 2.36851,-2.91209 0,0 -0.407016,-3.93619 -0.407016,-3.93619 z" />
  </g>
  <g
     inkscape:groupmode="layer"
     id="layer3"
     inkscape:label="Layer 3"
     style="display:inline">
    <ellipse
       style="display:inline;fill:#ffe680;stroke-width:0.269153"
       id="ellipse2310"
       cx="154.00153"
       cy="57.304756"
       rx="12.618842"
       ry="35.661945" />
    <ellipse
       style="display:inline;fill:#c83737;stroke-width:0.264583"
       id="ellipse2312"
       cx="152.90424"
       cy="43.222858"
       rx="4.9378076"
       ry="5.4864531" />
    <ellipse
       style="display:inline;fill:#bcd35f;stroke-width:0.264583"
       id="ellipse2314"
       cx="154.55017"
       cy="73.032585"
       rx="2.5603449"
       ry="3.1089902" />
    <path
       style="fill:#917c6f;stroke-width:0.264583"
       id="path2474"
       d="m 146.41749,83.679446 c -0.17125,-0.07509 -0.32898,-0.175964 -0.50245,-0.24597 -0.18556,-0.06921 -0.37222,-0.123407 -0.56836,-0.153223 -0.25934,-0.03455 -0.52121,-0.0049 -0.78174,-0.0033 -0.52568,-0.02956 -0.71955,0.119189 -1.04896,0.512887 -0.37976,0.499515 -0.66869,1.060632 -0.97732,1.605272 -0.27282,0.492337 -0.61296,0.943702 -0.89517,1.430486 -0.18551,0.319992 -0.22952,0.435607 -0.38156,0.766347 -0.0936,0.238 -0.17827,0.434506 -0.24753,0.679585 -0.44148,1.562182 -0.17187,3.693779 -0.16952,5.019344 0.12093,0.402439 0.331,0.767506 0.45732,1.168566 0.0292,0.09259 0.0673,0.184195 0.0775,0.280729 0.0102,0.09645 -0.0112,0.193648 -0.0168,0.29047 -0.0548,-6.196867 0.38106,-3.907922 -0.3238,-2.712421 -0.28999,0.491858 -0.64363,0.793628 -1.07145,1.161986 -0.21625,0.150427 -0.4252,0.311915 -0.64874,0.451282 -0.40252,0.250954 -1.0683,0.585647 -1.49296,0.791056 -0.75852,0.366906 -1.53285,0.703577 -2.2998,1.052298 -0.90114,0.392208 -1.84298,0.677593 -2.80058,0.893353 -0.44303,0.09982 -0.96022,0.195641 -1.41643,0.236794 -0.1849,0.01667 -0.371,0.01492 -0.5565,0.02236 -0.55831,-0.03017 -1.10238,-0.161208 -1.58528,-0.449998 -0.17617,-0.105352 -0.4237,-0.302122 -0.58574,-0.426069 -0.42311,-0.306464 -0.8005,-0.67306 -1.23505,-0.963898 -0.13846,-0.09267 -0.44936,-0.274506 -0.59422,-0.360432 -0.91808,-0.49028 -1.63127,-1.250111 -2.31956,-2.013746 -0.46698,-0.568746 -0.93971,-1.159621 -1.19664,-1.860936 -0.24729,-0.674979 -0.3598,-1.437423 -0.41289,-2.148279 -0.0279,-0.373907 -0.0169,-0.749708 -0.0253,-1.124559 0.10232,3.579175 -0.091,2.65698 0.22242,1.474396 0.0609,-0.229634 0.15642,-0.448638 0.23464,-0.67296 0,0 -0.42808,-3.466113 -0.42808,-3.466113 v 0 c -0.0909,0.250693 -0.19998,0.495507 -0.27263,0.752078 -0.4832,1.706621 -0.22594,3.22684 -0.25327,5.134285 0.0213,0.359902 0.0255,0.721225 0.0638,1.079709 0.082,0.766077 0.23095,1.619678 0.49255,2.348087 0.27546,0.767003 0.75763,1.418616 1.2766,2.033974 0.73194,0.82052 1.47111,1.649203 2.41591,2.232316 0.63544,0.379415 1.23839,0.806034 1.79488,1.295675 0.10607,0.07468 0.20847,0.154871 0.31822,0.224033 0.68037,0.42875 1.32683,0.57194 2.12734,0.52804 0.49943,-0.083 0.76289,-0.11481 1.26601,-0.25276 0.25713,-0.0705 0.50866,-0.16004 0.76281,-0.24061 0.94466,-0.299491 1.88729,-0.605656 2.83738,-0.887753 0.28452,-0.101375 0.57436,-0.188904 0.85357,-0.304122 0.24735,-0.102079 0.48314,-0.230227 0.72396,-0.34688 0.99051,-0.479779 1.97732,-0.966835 2.9699,-1.442209 0.60809,-0.420005 1.06136,-0.737939 1.45041,-1.381485 0.0663,-0.109707 0.1768,-0.209386 0.18469,-0.337338 0.0835,-1.356421 0.0581,-2.717364 0.0871,-4.076044 -0.0221,-0.102283 -0.0379,-0.206126 -0.0663,-0.306845 -0.13609,-0.483018 -0.43228,-0.921555 -0.43987,-1.437619 -0.048,6.933713 -0.16312,3.737332 0.081,2.477479 0.0566,-0.292042 0.10754,-0.430437 0.19555,-0.718849 0.10307,-0.265803 0.19624,-0.526259 0.32693,-0.780614 0.25029,-0.487105 0.59771,-0.911931 0.91854,-1.352341 0.15462,-0.290628 0.31746,-0.571611 0.48672,-0.853739 0.0238,-0.03969 0.25049,-0.435266 0.28274,-0.484333 0.0451,-0.06865 0.0974,-0.132275 0.14616,-0.198413 0.25242,-0.323575 0.26132,-0.469276 0.70561,-0.451866 0.24009,0.0037 0.47965,0.0208 0.71774,0.05213 0.16248,0.03079 0.31742,0.08621 0.46952,0.150812 0.17363,0.08667 0.34797,0.17081 0.51634,0.267449 0,0 0.15066,-3.957577 0.15066,-3.957577 z" />
    <path
       style="fill:#917c6f;stroke-width:0.264583"
       id="path2476"
       d="m 152.7086,90.436922 c -0.54269,0.351518 -1.05361,0.750158 -1.55573,1.157206 -0.73403,0.615029 -1.49476,1.197044 -2.23093,1.809334 -0.68944,0.555535 -1.33312,1.163805 -1.97861,1.768899 -0.61131,0.568621 -1.14881,1.203539 -1.62917,1.8846 -1.20515,1.927945 -0.69156,2.722362 -0.69896,5.596749 0.19701,0.75409 0.73691,1.31535 1.27751,1.84527 0.46985,0.48877 0.97149,0.94836 1.5262,1.34021 0.34447,0.24334 0.50368,0.31893 0.86993,0.52226 0.84934,0.41611 1.75564,0.69413 2.66256,0.95256 1.10188,0.26058 2.18497,0.5904 3.24739,0.98074 0.7396,0.27106 1.38592,0.72604 2.09878,1.05255 0.66856,0.27034 1.39074,0.44594 2.01202,0.8244 0.0866,0.0527 0.1635,0.1198 0.24525,0.1797 0.17216,0.17355 0.28783,0.36329 0.29161,0.6141 0.001,0.0803 -0.0241,0.31972 -0.0257,0.23946 -0.0661,-3.49165 0.28158,-4.59104 -0.14015,-3.09598 -0.0746,0.14219 -0.13722,0.29136 -0.22383,0.42657 -0.0857,0.13375 -0.18895,0.25562 -0.29106,0.37728 -0.43078,0.51322 -0.94182,0.92482 -1.4703,1.33115 -0.12888,0.0935 -0.25788,0.18679 -0.38666,0.2804 -0.33007,0.23993 -0.51416,0.38347 -0.8589,0.60088 -0.37317,0.23535 -0.7706,0.43024 -1.15419,0.64764 -0.46952,0.23905 -0.9112,0.52916 -1.38119,0.76722 -0.21179,0.10727 -0.4287,0.20413 -0.64193,0.30849 -0.51064,0.26113 -1.07902,0.38284 -1.59268,0.63357 -0.0539,0.0409 -0.11506,0.0736 -0.16166,0.12255 -0.0707,0.0743 -0.22629,0.30971 -0.22825,0.41892 -0.0244,1.35368 -0.041,2.70889 0.014,4.06168 0.001,0.0319 0.34947,0.61912 0.35316,0.62542 0.39513,0.60346 0.89817,1.12248 1.37976,1.65569 0.21919,0.19974 0.40344,0.43585 0.54267,0.69744 0.0637,0.11924 0.15824,0.21546 0.19929,0.3467 0.0136,0.0435 0.0172,0.0896 0.0277,0.13393 0.0275,0.11606 0.0623,0.23032 0.0955,0.3448 0.10733,0.3943 0.18392,0.79202 0.2182,1.1993 0.003,0.0566 0.006,0.11313 0.01,0.16969 0,0 0.57103,-3.84631 0.57103,-3.84631 v 0 c -0.008,-0.0537 -0.015,-0.1074 -0.0226,-0.1611 -0.0692,-0.4031 -0.16984,-0.79957 -0.27977,-1.19336 -0.0324,-0.11159 -0.0751,-0.27398 -0.12274,-0.38267 -0.0786,-0.17952 -0.2096,-0.33061 -0.30607,-0.49997 -0.19133,-0.25576 -0.37395,-0.43306 -0.62845,-0.62903 -0.4945,-0.46072 -0.97363,-0.94399 -1.26997,-1.56237 -0.0477,-0.11364 -0.10675,-0.22316 -0.14312,-0.34092 -0.0341,-0.11026 -0.0631,-0.45496 -0.0671,-0.33963 -0.0405,1.1787 -0.0254,2.35867 -0.0429,3.53795 -0.001,0.0668 -0.0118,-0.13381 -0.007,-0.20044 0.004,-0.0548 0.0186,-0.10878 0.0356,-0.16106 0.0143,-0.044 0.0386,-0.0842 0.058,-0.12624 0.17869,-0.16206 0.3421,-0.23785 0.56338,-0.33714 0.3202,-0.14368 0.63945,-0.28976 0.96427,-0.42282 0.72248,-0.30698 1.37749,-0.72194 2.05684,-1.11189 0.83575,-0.49053 1.65969,-1.00363 2.44404,-1.57331 0.8053,-0.60537 1.58087,-1.26599 2.18199,-2.08173 0.88322,-1.4917 0.26954,-0.32985 0.26915,-4.41206 -10e-6,-0.0891 -0.0375,-0.17529 -0.072,-0.25742 -0.11112,-0.26401 -0.31546,-0.44486 -0.55507,-0.59021 -0.74941,-0.35827 -1.56635,-0.566 -2.28963,-0.98541 -0.69558,-0.35892 -1.41637,-0.67564 -2.14533,-0.96009 -0.1558,-0.0524 -0.30912,-0.11289 -0.4674,-0.15729 -0.15601,-0.0438 -0.31679,-0.0684 -0.4742,-0.10686 -0.1847,-0.0451 -0.36846,-0.0939 -0.55199,-0.14356 -0.53145,-0.14365 -0.67214,-0.18748 -1.20064,-0.35366 -0.18806,-0.0591 -0.3755,-0.12024 -0.56325,-0.18035 -0.1705,-0.0622 -0.341,-0.12449 -0.51151,-0.18673 -0.15182,-0.0582 -0.30291,-0.11832 -0.45547,-0.17453 -0.54329,-0.20019 -1.10393,-0.35919 -1.6217,-0.62327 -0.34259,-0.19537 -0.49597,-0.27099 -0.81751,-0.50212 -0.54499,-0.39175 -1.00364,-0.88065 -1.46321,-1.3659 -0.4741,-0.56471 -0.96524,-1.151755 -1.00298,-1.92247 -0.0119,1.14859 -0.0239,2.29717 -0.0358,3.44576 0.007,-0.10172 0.005,-0.20463 0.0225,-0.30516 0.0762,-0.44451 0.29443,-0.85517 0.50807,-1.24533 0.12113,-0.20286 0.26438,-0.45084 0.39977,-0.6432 0.32845,-0.466636 0.72528,-0.882193 1.13621,-1.27593 0.64716,-0.611511 1.27931,-1.238914 1.95371,-1.82103 0.28912,-0.244734 0.46678,-0.39956 0.76466,-0.633888 0.48064,-0.37809 0.99134,-0.716825 1.45692,-1.11437 0.46843,-0.349551 0.93344,-0.716113 1.47366,-0.950013 0,0 -0.16421,-3.924247 -0.16421,-3.924247 z" />
    <path
       style="fill:#917c6f;stroke-width:0.264583"
       id="path2478"
       d="m 162.96821,85.261953 c 0.66032,-0.224306 1.35401,-0.29999 2.04676,-0.330965 0.49944,0.0048 1.01211,0.07414 1.46049,0.310499 0.2537,0.133729 0.35939,0.243727 0.57867,0.428541 0.46188,0.427236 0.73512,0.98934 0.85204,1.603975 0.0242,0.126931 0.0318,0.256445 0.0478,0.38467 0.003,0.136554 0.006,0.273108 0.01,0.409662 -0.006,-1.046969 5.3e-4,-2.094103 -0.0192,-3.140905 -0.004,-0.223563 -0.0167,0.446899 -0.0272,0.67025 -0.0369,0.779166 -0.0713,1.555536 -0.0852,2.335588 0.0725,1.903659 -0.34636,4.732139 0.62315,6.676446 0.0846,0.169598 0.19388,0.325686 0.29082,0.488526 0.36443,0.534469 0.26186,0.437301 0.737,0.908445 0.14637,0.145139 0.29106,0.293277 0.45221,0.421798 0.56941,0.454105 1.26862,0.81837 1.90667,1.162942 0.54902,0.256077 0.96242,0.477464 1.55363,0.635518 0.86354,0.230857 1.80153,0.277982 2.69035,0.220068 0.25253,-0.01646 0.50243,-0.06116 0.75365,-0.09174 1.10489,-0.187319 1.88076,-0.784465 2.71506,-1.477015 0.52965,-0.483267 0.89099,-1.102945 1.1547,-1.762313 0.43722,-1.430594 0.76278,-3.180154 0.0637,-4.523361 -0.043,-0.08255 -0.0969,-0.15901 -0.14155,-0.240641 -0.033,-0.03513 -0.0679,-0.0686 -0.0991,-0.105397 -0.086,-0.101526 -0.0617,-0.09917 -0.15414,-0.195466 -0.0818,-0.08522 -0.17385,-0.148821 -0.24927,-0.240568 -0.18306,-0.24239 -0.37381,-0.480332 -0.58006,-0.704556 -0.26755,-0.25423 -0.55981,-0.482166 -0.84259,-0.719645 0,0 -0.28336,3.782954 -0.28336,3.782954 v 0 c 0.26621,0.269891 0.54738,0.525624 0.79692,0.811464 0.20562,0.243498 0.37843,0.510905 0.59175,0.746797 0.1571,0.143761 0.29999,0.316489 0.37485,0.517601 0.0374,0.10105 0.0499,0.110234 0.0538,0.219824 0.002,0.04123 -0.006,0.164891 -0.006,0.123632 0.0311,-6.529453 0.11335,-4.603377 -0.004,-3.257968 -0.17829,0.701008 -0.44591,1.287658 -0.95137,1.819574 -0.73662,0.729655 -1.47722,1.402927 -2.49899,1.703358 -0.66802,0.149297 -0.81692,0.219946 -1.53006,0.214802 -1.15485,-0.0083 -2.23067,-0.380558 -3.22872,-0.941683 -0.22499,-0.134988 -0.45495,-0.262015 -0.67497,-0.404961 -0.89006,-0.578276 -1.68601,-1.294532 -2.21268,-2.226024 -0.26351,-0.532863 -0.4555,-0.949743 -0.58034,-1.538507 -0.24601,-1.16027 -0.19824,-3.825711 -0.18243,1.406083 0.005,-0.716635 -0.003,-0.833671 0.0356,-1.543101 0.0125,-0.229039 0.0311,-0.457715 0.0487,-0.686421 0.0151,-0.196377 0.0467,-0.391864 0.0494,-0.588801 0.0542,-3.950989 0.16302,-2.812251 -0.0319,-4.583377 -0.0307,-0.132543 -0.0539,-0.267058 -0.0921,-0.397624 -0.18861,-0.644091 -0.54639,-1.207209 -1.07605,-1.622478 -0.25307,-0.18977 -0.40178,-0.321739 -0.69168,-0.456573 -0.49967,-0.232405 -1.0702,-0.248576 -1.60945,-0.233267 -0.69527,0.01328 -1.3898,0.04038 -2.08411,0.06986 0,0 0.049,3.94049 0.049,3.94049 z" />
  </g>
  <g
     inkscape:groupmode="layer"
     id="layer4"
     inkscape:label="Layer 4"
     style="display:inline">
    <ellipse
       style="display:inline;fill:#ffe680;stroke-width:0.28152"
       id="ellipse2800"
       cx="44.089573"
       cy="205.62184"
       rx="14.630542"
       ry="33.650246" />
    <ellipse
       style="display:inline;fill:#c83737;stroke-width:0.264583"
       id="ellipse2802"
       cx="43.9067"
       cy="189.52826"
       rx="4.9378076"
       ry="5.4864531" />
    <ellipse
       style="display:inline;fill:#bcd35f;stroke-width:0.264583"
       id="ellipse2804"
       cx="49.941795"
       cy="218.97221"
       rx="2.5603449"
       ry="3.1089902" />
    <path
       style="display:inline;fill:#917c6f;stroke-width:0.264583"
       id="path2808"
       d="m 43.711077,236.74234 c -0.54269,0.35152 -1.05361,0.75016 -1.55573,1.15721 -0.73403,0.61503 -1.49476,1.19704 -2.23093,1.80933 -0.68944,0.55554 -1.33312,1.16381 -1.97861,1.7689 -0.61131,0.56862 -1.14881,1.20354 -1.62917,1.8846 -1.20515,1.92795 -0.69156,2.72236 -0.69896,5.59675 0.19701,0.75409 0.73691,1.31535 1.27751,1.84526 0.46985,0.48878 0.97149,0.94837 1.5262,1.34022 0.34447,0.24334 0.50368,0.31893 0.86993,0.52226 0.84934,0.41611 1.75564,0.69412 2.66256,0.95256 1.10188,0.26057 2.18497,0.59039 3.24739,0.98074 0.7396,0.27106 1.38592,0.72603 2.09878,1.05255 0.66856,0.27033 1.39074,0.44593 2.01202,0.82439 0.0866,0.0527 0.1635,0.11981 0.24525,0.17971 0.17216,0.17355 0.28783,0.36329 0.29161,0.6141 10e-4,0.0803 -0.0241,0.31972 -0.0257,0.23946 -0.0661,-3.49165 0.28158,-4.59104 -0.14015,-3.09598 -0.0746,0.14219 -0.13722,0.29135 -0.22383,0.42657 -0.0857,0.13375 -0.18895,0.25562 -0.29106,0.37728 -0.43078,0.51322 -0.94182,0.92482 -1.4703,1.33115 -0.12888,0.0935 -0.25788,0.18679 -0.38666,0.2804 -0.33007,0.23993 -0.51416,0.38347 -0.8589,0.60088 -0.37317,0.23535 -0.7706,0.43024 -1.15419,0.64764 -0.46952,0.23905 -0.9112,0.52916 -1.38119,0.76722 -0.21179,0.10727 -0.4287,0.20413 -0.64193,0.30849 -0.51064,0.26113 -1.07902,0.38284 -1.59268,0.63357 -0.0539,0.0409 -0.11506,0.0736 -0.16166,0.12255 -0.0707,0.0743 -0.22629,0.30971 -0.22825,0.41892 -0.0244,1.35368 -0.041,2.70889 0.014,4.06168 10e-4,0.0319 0.34947,0.61912 0.35316,0.62542 0.39513,0.60346 0.89817,1.12248 1.37976,1.65569 0.21919,0.19974 0.40344,0.43585 0.54267,0.69743 0.0637,0.11924 0.15824,0.21546 0.19929,0.3467 0.0136,0.0435 0.0172,0.0896 0.0277,0.13393 0.0275,0.11606 0.0623,0.23032 0.0955,0.3448 0.10733,0.3943 0.18392,0.79202 0.2182,1.1993 0.003,0.0566 0.006,0.11313 0.01,0.16969 0,0 0.57103,-3.8463 0.57103,-3.8463 v 0 c -0.008,-0.0537 -0.015,-0.1074 -0.0226,-0.1611 -0.0692,-0.4031 -0.16984,-0.79957 -0.27977,-1.19336 -0.0324,-0.11159 -0.0751,-0.27398 -0.12274,-0.38267 -0.0786,-0.17952 -0.2096,-0.33061 -0.30607,-0.49997 -0.19133,-0.25576 -0.37395,-0.43306 -0.62845,-0.62903 -0.4945,-0.46072 -0.97363,-0.94399 -1.26997,-1.56237 -0.0477,-0.11364 -0.10675,-0.22316 -0.14312,-0.34092 -0.0341,-0.11026 -0.0631,-0.45496 -0.0671,-0.33963 -0.0405,1.1787 -0.0254,2.35867 -0.0429,3.53795 -10e-4,0.0668 -0.0118,-0.13381 -0.007,-0.20044 0.004,-0.0548 0.0186,-0.10878 0.0356,-0.16106 0.0143,-0.044 0.0386,-0.0842 0.058,-0.12624 0.17869,-0.16206 0.3421,-0.23785 0.56338,-0.33714 0.3202,-0.14368 0.63945,-0.28976 0.96427,-0.42282 0.72248,-0.30698 1.37749,-0.72194 2.05684,-1.11189 0.83575,-0.49053 1.65969,-1.00363 2.44404,-1.57331 0.8053,-0.60537 1.58087,-1.26599 2.18199,-2.08173 0.88322,-1.4917 0.26954,-0.32985 0.26915,-4.41206 -1e-5,-0.0891 -0.0375,-0.1753 -0.072,-0.25742 -0.11112,-0.26401 -0.31546,-0.44486 -0.55507,-0.59022 -0.74941,-0.35826 -1.56635,-0.56599 -2.28963,-0.9854 -0.69558,-0.35892 -1.41637,-0.67565 -2.14533,-0.96009 -0.1558,-0.0524 -0.30912,-0.11289 -0.4674,-0.15729 -0.15601,-0.0438 -0.31679,-0.0684 -0.4742,-0.10686 -0.1847,-0.0451 -0.36846,-0.094 -0.55199,-0.14356 -0.53145,-0.14366 -0.67214,-0.18748 -1.20064,-0.35366 -0.18806,-0.0591 -0.3755,-0.12024 -0.56325,-0.18036 -0.1705,-0.0622 -0.341,-0.12448 -0.51151,-0.18672 -0.15182,-0.0582 -0.30291,-0.11832 -0.45547,-0.17454 -0.54329,-0.20019 -1.10393,-0.35919 -1.6217,-0.62326 -0.34259,-0.19538 -0.49597,-0.27099 -0.81751,-0.50212 -0.54499,-0.39176 -1.00364,-0.88065 -1.46321,-1.3659 -0.4741,-0.56471 -0.96524,-1.15175 -1.00298,-1.92247 -0.0119,1.14859 -0.0239,2.29717 -0.0358,3.44576 0.007,-0.10172 0.005,-0.20464 0.0225,-0.30516 0.0762,-0.44451 0.29443,-0.85517 0.50807,-1.24533 0.12113,-0.20286 0.26438,-0.45084 0.39977,-0.6432 0.32845,-0.46664 0.72528,-0.88219 1.13621,-1.27593 0.64716,-0.61151 1.27931,-1.23891 1.95371,-1.82103 0.28912,-0.24473 0.46678,-0.39956 0.76466,-0.63389 0.48064,-0.37809 0.99134,-0.71682 1.45692,-1.11437 0.46843,-0.34955 0.93344,-0.71611 1.47366,-0.95001 0,0 -0.16421,-3.92425 -0.16421,-3.92425 z" />
    <path
       style="display:inline;fill:#917c6f;stroke-width:0.264583"
       id="path3694"
       d="m 35.887941,229.04934 c -0.479608,1.50065 -1.042821,2.97219 -1.521733,4.4729 -0.348818,1.28476 -0.72904,2.56325 -1.032925,3.85953 -0.178612,1.1207 -0.321456,2.24103 -0.622668,3.33718 -0.384236,1.48687 -1.481316,2.56425 -2.562569,3.58394 -1.043783,0.85023 -2.210229,1.52137 -3.310434,2.29353 -1.066293,0.83048 -1.655164,2.0615 -2.202183,3.26327 -0.680933,1.48431 -1.094593,3.06646 -1.468149,4.65031 -0.284186,1.17756 -0.37734,2.38451 -0.423371,3.59101 0.0082,1.8253 -0.681298,3.8858 0.394965,5.43779 0,0 0.416901,-3.92073 0.416901,-3.92073 v 0 c -0.04055,-0.0962 -0.09194,-0.18856 -0.121648,-0.28866 -0.03424,-0.11535 -0.06554,-0.47458 -0.06918,-0.3543 -0.03019,0.99703 -0.03632,5.00221 -0.02053,2.99244 0.02672,-1.21497 0.08586,-2.43335 0.342808,-3.62535 0.341017,-1.57697 0.736884,-3.15066 1.396328,-4.62888 0.492663,-1.16854 1.03579,-2.35215 1.993579,-3.21792 1.117839,-0.78981 2.270362,-1.52395 3.360032,-2.35278 1.098949,-1.01775 2.299013,-2.07037 2.780563,-3.53658 0.316026,-1.1041 0.531312,-2.2197 0.64204,-3.36479 0.265258,-1.3119 0.689428,-2.58673 0.995773,-3.88968 0.442187,-1.47748 1.006575,-2.91012 1.502698,-4.36981 0,0 -0.470297,-3.93242 -0.470297,-3.93242 z" />
    <path
       style="display:inline;fill:#917c6f;stroke-width:0.264583"
       id="path3698"
       d="m 50.495089,234.77375 c 1.242232,1.12411 2.562386,2.10301 4.064259,2.84962 1.212173,0.55323 2.460199,0.47844 3.734912,0.27642 1.161835,-0.15973 2.319152,-0.33738 3.477125,-0.52326 0.730845,-0.0305 1.767429,-0.40579 2.448718,-0.0424 0.174289,0.093 0.318725,0.23341 0.478086,0.35012 0.965126,1.13645 1.470827,2.61114 1.62015,4.08703 0.03961,0.39146 0.02215,0.78661 0.03322,1.17992 -0.04654,-0.81873 0.171144,-1.6973 -0.139625,-2.45619 -0.177041,-0.43233 -0.176134,0.91896 -0.306123,1.36769 -0.595797,2.05671 -1.730926,3.85637 -2.95469,5.586 -0.329684,0.39045 -0.659368,0.78089 -0.989049,1.17134 0,0 0.324374,3.72562 0.324374,3.72562 v 0 c 0.338415,-0.39902 0.67683,-0.79803 1.015246,-1.19705 1.263806,-1.71053 2.440765,-3.51272 3.104681,-5.55453 0.144553,-0.44456 0.314897,-0.89135 0.352833,-1.35727 0.136448,-1.67581 0.112101,-3.36083 0.16815,-5.04125 -0.140615,-1.99702 -0.507478,-3.94247 -1.998884,-5.39594 -0.198472,-0.12397 -0.382069,-0.27578 -0.595413,-0.37193 -0.819209,-0.3692 -1.777537,-0.009 -2.625982,0.0397 -1.155234,0.19806 -2.311064,0.37697 -3.472368,0.53532 -1.191577,0.17804 -2.365288,0.28555 -3.498678,-0.23641 -1.490948,-0.72751 -2.785837,-1.73755 -3.930364,-2.93877 0,0 -0.310576,3.94625 -0.310576,3.94625 z" />
  </g>
  <g
     inkscape:groupmode="layer"
     id="layer2"
     inkscape:label="Layer 2"
     style="display:inline">
    <ellipse
       style="fill:#ffe680;stroke-width:0.273272"
       id="ellipse1562"
       cx="155.5752"
       cy="204.53687"
       rx="13.35037"
       ry="34.747536" />
    <ellipse
       style="fill:#c83737;stroke-width:0.264583"
       id="ellipse1564"
       cx="154.84367"
       cy="189.54057"
       rx="4.9378076"
       ry="5.4864531" />
    <ellipse
       style="fill:#bcd35f;stroke-width:0.264583"
       id="ellipse1566"
       cx="159.4157"
       cy="215.69266"
       rx="2.5603449"
       ry="3.1089902" />
    <path
       style="fill:#917c6f;stroke-width:0.264583"
       id="path1570"
       d="m 163.58251,230.74357 c 1.14456,0.39211 2.39435,0.51245 3.49251,1.0417 0.22823,0.10999 0.43359,0.2622 0.65039,0.39331 1.00764,0.72285 1.432,1.79342 1.59739,2.97825 0.0883,1.37016 0.1368,2.28883 0.009,-2.63616 -0.006,-0.21215 -0.0231,0.42383 -0.0388,0.63546 -0.0453,0.611 -0.10998,1.22095 -0.16507,1.83112 -0.0908,1.11881 -0.12107,2.24107 -0.13736,3.36302 0.0179,1.45278 -0.0175,2.90719 0.0538,4.35832 0.0373,0.75783 1.47142,2.42055 1.96972,2.98503 0.97674,1.0259 2.17748,1.80345 3.38476,2.52995 0.66319,0.41914 1.25963,0.76382 1.44026,1.56292 0.262,1.08484 0.43067,2.19493 0.61087,3.29776 0.0798,0.99934 0.30687,1.96276 0.58716,2.92114 0.0976,0.57446 0.33236,1.04528 0.71634,1.47378 0,0 0.35723,-3.92443 0.35723,-3.92443 v 0 c -0.29098,-0.44095 -0.45137,-0.92417 -0.56837,-1.43932 -0.26696,-0.94978 -0.41779,-1.9178 -0.54659,-2.89509 -0.19597,-1.11942 -0.33606,-2.25842 -0.67316,-3.34539 -0.3583,-0.75044 -1.01102,-1.14032 -1.71268,-1.5515 -1.17362,-0.70271 -2.34448,-1.44464 -3.26186,-2.47505 -0.48414,-0.59214 -0.9818,-1.19476 -1.33953,-1.87651 -0.71005,-1.35321 -0.44331,-3.8609 -0.41022,2.24448 0.01,-1.12345 0.0292,-2.24735 0.10691,-3.36853 0.20855,-2.51197 0.54752,-5.0491 0.16015,-7.56729 -0.2742,-1.22592 -0.84587,-2.27476 -1.93852,-2.96444 -0.23895,-0.13057 -0.46817,-0.28078 -0.71684,-0.39172 -1.11542,-0.49764 -2.3626,-0.63749 -3.4769,-1.13839 0,0 -0.15066,3.95758 -0.15066,3.95758 z" />
    <path
       style="fill:#917c6f;stroke-width:0.264583"
       id="path1903"
       d="m 148.11731,228.97775 c -0.44703,0.23316 -0.90866,0.43376 -1.37297,0.62934 -0.31829,0.1567 -0.66077,0.25838 -0.96281,0.44613 -0.21084,0.13688 -0.41219,0.28446 -0.61524,0.43232 -0.2683,0.24121 -0.53981,0.47855 -0.81554,0.71128 -0.29132,0.2115 -0.55053,0.45686 -0.81282,0.70222 -0.27847,0.24181 -0.54153,0.50044 -0.81638,0.74606 -0.19331,0.18933 -0.41255,0.3633 -0.57583,0.58052 -0.1746,0.20166 -0.34323,0.40446 -0.46069,0.64527 -0.13612,0.25891 -0.25654,0.51761 -0.35351,0.79394 -0.0512,0.25077 -0.17741,0.48121 -0.22372,0.73219 -0.0929,0.213 -0.1592,0.42989 -0.19365,0.65958 0.006,0.38992 -0.13376,0.74078 -0.31161,1.08203 -0.1394,0.29221 -0.35842,0.53217 -0.55414,0.78674 -0.21746,0.29773 -0.43747,0.5946 -0.68414,0.86896 -0.17957,0.2191 -0.36912,0.43055 -0.54073,0.65589 -0.15018,0.15376 -0.28192,0.31552 -0.40657,0.48951 -0.17051,0.22976 -0.36227,0.44765 -0.55681,0.65833 -0.3216,0.3537 -0.64042,0.70852 -0.94679,1.0756 -0.38038,0.45799 -0.69021,0.9649 -0.99367,1.47518 -0.37955,0.57366 -0.67808,1.1912 -0.97852,1.80797 -0.24835,0.49512 -0.4341,1.01752 -0.63713,1.53189 -0.13782,0.37012 -0.22484,0.7579 -0.31063,1.14298 -0.21093,1.57991 -0.74261,3.40829 0.0927,4.81074 0.25872,0.24617 0.50215,0.50573 0.78033,0.73093 0.25555,0.28756 0.47629,0.59169 0.61509,0.95121 0.13787,0.45634 0.25092,0.92389 0.35025,1.39091 0.11398,0.73882 0.13057,1.48782 0.14443,2.23383 0.003,0.2877 0.006,0.47762 0.007,0.76606 5.3e-4,0.1239 2.6e-4,0.49557 -5e-5,0.37168 -0.0167,-5.99058 0.0636,-4.26024 -0.0468,-2.94316 -0.0412,0.41209 -0.11701,0.82024 -0.21085,1.22335 -0.11309,0.43757 -0.27219,0.85845 -0.45018,1.27312 -0.13142,0.29135 -0.0674,0.15221 -0.19171,0.41766 0,0 0.4306,3.87103 0.4306,3.87103 v 0 c 0.14777,-0.28017 0.079,-0.13436 0.20475,-0.43812 0.19128,-0.40415 0.39119,-0.80956 0.50508,-1.2438 0.15041,-0.41003 0.20104,-0.84172 0.28605,-1.26834 0.16943,-1.92803 0.0763,-3.86808 0.0538,-5.80159 -0.0265,-0.76629 -0.0557,-1.53725 -0.21184,-2.29034 -0.11589,-0.48887 -0.20933,-0.98976 -0.43389,-1.44362 -0.20895,-0.35743 -0.45896,-0.69375 -0.77006,-0.96944 -0.22222,-0.21259 -0.48276,-0.44004 -0.59448,-0.73077 -0.0179,-0.092 -0.0284,-0.37337 -0.0286,-0.27966 -0.0188,6.56778 -0.0737,4.6405 0.0146,3.25138 0.0517,-0.39383 0.1552,-0.77709 0.23753,-1.16479 0.18196,-0.53014 0.37805,-1.05533 0.59427,-1.57265 0.29468,-0.6131 0.56038,-1.24189 0.9405,-1.80969 0.30406,-0.48426 0.5841,-0.98659 0.95329,-1.42645 0.27432,-0.37388 0.5906,-0.71378 0.91686,-1.0429 0.0398,-0.0426 0.0796,-0.0851 0.11932,-0.12765 0.0425,-0.0368 0.0879,-0.0704 0.12752,-0.11038 0.12561,-0.12672 0.21171,-0.29097 0.36394,-0.3934 0.0409,-0.058 0.0953,-0.10624 0.13239,-0.16678 0.0147,-0.024 0.014,-0.055 0.0268,-0.08 0.0509,-0.0988 0.15861,-0.1366 0.20299,-0.24012 0.2086,-0.20492 0.35252,-0.46486 0.55261,-0.67927 0.22771,-0.29496 0.48467,-0.5679 0.7037,-0.86996 0.0629,-0.0855 0.13429,-0.1647 0.19643,-0.25081 0.0295,-0.0409 0.0481,-0.0893 0.0794,-0.12882 0.11313,-0.1429 0.27077,-0.25138 0.34053,-0.42836 0.0656,-0.12508 0.14077,-0.24502 0.20524,-0.37068 0.1801,-0.35103 0.006,-0.0547 0.16881,-0.39067 0.0287,-0.0593 0.0767,-0.10971 0.0967,-0.17255 0.0134,-0.0421 9e-5,-0.0882 1.4e-4,-0.13237 0.004,-0.2164 -7.9e-4,-0.43987 0.09,-0.64127 0.0627,-0.11825 0.0678,-0.21976 0.10674,-0.34604 0.0324,-0.10512 0.0606,-0.15962 0.10596,-0.26165 0.0151,-0.0478 0.0192,-0.0983 0.0288,-0.14751 0.0719,-0.2722 0.13862,-0.55321 0.30716,-0.78436 0.0901,-0.22571 0.16899,-0.4527 0.35752,-0.61921 0.20055,-0.22726 -0.0263,0.0447 0.13026,-0.18826 0.10368,-0.15427 0.2798,-0.24852 0.37871,-0.4089 0.28277,-0.2422 0.53072,-0.51727 0.81084,-0.76258 0.28331,-0.22227 0.51667,-0.49192 0.80878,-0.70186 0.27328,-0.22705 0.5371,-0.4647 0.82503,-0.67417 0.16679,-0.17866 0.38093,-0.30572 0.58155,-0.44232 0.26082,-0.23124 0.58109,-0.3147 0.87948,-0.48894 0.44507,-0.21392 0.89354,-0.42974 1.36802,-0.57075 0,0 -0.15965,-3.94084 -0.15965,-3.94084 z" />
    <path
       style="fill:#917c6f;stroke-width:0.264583"
       id="path1905"
       d="m 155.01133,237.18017 c -0.0766,0.3106 -0.21299,0.59998 -0.3087,0.90439 -0.0658,0.22144 -0.11657,0.45151 -0.1947,0.66823 -0.10548,0.23198 -0.10695,0.48704 -0.15611,0.7307 -0.0418,0.25309 -0.16589,0.481 -0.26502,0.71497 -0.0797,0.29239 -0.18477,0.57621 -0.27677,0.86465 -0.0876,0.29808 -0.14101,0.60441 -0.2161,0.90513 -0.0699,0.29991 -0.15884,0.59496 -0.22201,0.89652 -0.0439,0.25961 -0.0785,0.52467 -0.0614,0.78823 -0.0182,0.26002 -0.10025,0.50508 -0.16535,0.7557 -0.0727,0.28672 -0.0902,0.58177 -0.0989,0.8761 -0.0228,1.61359 -0.007,3.22748 -0.006,4.84123 -2.7e-4,0.28572 7.9e-4,0.57144 7.9e-4,0.85716 -7.9e-4,1.4376 -5.3e-4,3.61554 7.9e-4,-2.98213 -5.3e-4,0.37467 10e-4,0.74934 10e-4,1.12401 -10e-6,0.41223 -5.3e-4,0.82444 2.6e-4,1.23667 -0.002,1.70299 -0.009,3.40602 0.002,5.10898 -0.003,1.33663 0.0384,3.26614 -0.004,-2.9838 -5.3e-4,-0.0956 -0.0113,0.19079 -0.0174,0.28616 -0.0237,0.36721 -0.016,0.25858 -0.0478,0.60646 -0.0602,0.67933 -0.29241,1.31081 -0.5761,1.924 -0.22181,0.5397 -0.54758,1.0248 -0.8357,1.52928 -0.25782,0.45807 -0.5035,0.9226 -0.75357,1.38502 -0.18277,0.40052 -0.39514,0.78766 -0.56658,1.19319 -0.1799,0.43757 -0.33748,0.88377 -0.50413,1.32649 -0.2305,0.61297 -0.39832,1.24564 -0.55253,1.88124 -0.18883,0.78119 -0.22963,1.58491 -0.26003,2.38469 -0.0171,2.02255 -0.3041,3.78553 0.34747,5.61879 0.27226,0.5887 0.62657,1.14167 1.07176,1.61345 0.32679,0.39312 0.73237,0.70867 1.08569,1.07531 0.0491,0.0527 0.094,0.10957 0.14727,0.15798 0.44527,0.40452 -0.0634,-0.11471 0.38775,0.32256 0.18037,0.17482 0.32373,0.38244 0.48456,0.5745 0.38497,0.43432 0.68711,0.92558 0.92039,1.45497 0.33557,0.72756 0.619,1.47485 0.88883,2.22873 0.23887,0.62137 0.56729,1.20206 0.86861,1.79396 0.43108,0.72957 0.6369,1.54593 0.78422,2.37177 0.0166,0.12517 0.0332,0.25034 0.0498,0.37551 0,0 0.53772,-3.78526 0.53772,-3.78526 v 0 c -0.0229,-0.11994 -0.0457,-0.23989 -0.0686,-0.35984 -0.19742,-0.84436 -0.46962,-1.66258 -0.88126,-2.42941 -0.29487,-0.57385 -0.6045,-1.14187 -0.82648,-1.74946 -0.2839,-0.76222 -0.5886,-1.51661 -0.92185,-2.25871 -0.27711,-0.54105 -0.60244,-1.047 -1.01062,-1.50029 -0.31953,-0.39296 -0.6998,-0.72299 -1.05907,-1.07861 -0.36087,-0.33431 -0.73278,-0.65833 -1.05851,-1.02838 -0.38768,-0.48717 -0.72661,-1.01312 -0.91412,-1.61232 -0.0685,-0.24143 -0.0903,-0.29928 -0.13875,-0.54524 -0.26298,-1.33568 0.004,-3.74369 -0.11031,2.52284 0.0169,-0.78985 0.0358,-1.58428 0.18833,-2.36208 0.13134,-0.61695 0.29863,-1.22846 0.51593,-1.82083 0.14346,-0.43771 0.33209,-0.8604 0.48839,-1.29309 0.16384,-0.41216 0.34559,-0.81293 0.53706,-1.2133 0.11136,-0.24811 0.24317,-0.47487 0.37235,-0.71343 0.0469,-0.0866 0.17787,-0.37151 0.23087,-0.4594 0.0439,-0.0728 0.0975,-0.1393 0.1462,-0.20894 0.24583,-0.5476 0.61014,-1.02789 0.84648,-1.57979 0.0963,-0.2144 0.20988,-0.42078 0.30564,-0.63543 0.18231,-0.40869 0.304,-0.84263 0.39144,-1.28038 0.26834,-1.83626 0.0911,-3.70599 0.11728,-5.55766 0.002,-0.37365 0.001,-0.15612 0.002,-0.49065 2e-4,-0.0683 5.3e-4,-0.27336 5.3e-4,-0.20503 2e-4,6.40034 0.001,4.61359 -0.001,3.26528 8e-4,-0.41082 2.7e-4,-0.82164 2.7e-4,-1.23247 2.2e-4,-0.369 0.002,-0.73799 0.001,-1.107 2.7e-4,-1.58958 0.002,-3.17914 5.3e-4,-4.76871 -2e-4,-0.28684 5.3e-4,-0.57368 -7.9e-4,-0.86052 -0.006,-2.0214 7.9e-4,5.40297 -0.002,2.91455 0.001,-0.28437 -0.003,-0.56971 0.0299,-0.85272 0.0188,-0.13188 0.0342,-0.2707 0.0813,-0.39646 0.0155,-0.0414 0.0438,-0.0777 0.057,-0.11989 0.0234,-0.0751 0.006,-0.15992 0.0499,-0.23064 0.0851,-0.25648 0.0174,-0.5359 0.0563,-0.80241 0.0299,-0.3052 0.10088,-0.59707 0.18378,-0.89098 0.0258,-0.0983 0.0635,-0.19336 0.0861,-0.29243 0.0463,-0.20267 0.0468,-0.41809 0.13321,-0.61202 0.0522,-0.29547 0.16502,-0.56784 0.25437,-0.8527 0.0522,-0.26162 0.17218,-0.47536 0.28696,-0.71185 0.024,-0.0786 0.0632,-0.15275 0.08,-0.23321 0.0334,-0.16074 -0.003,-0.33785 0.053,-0.49665 0.04,-0.14708 0.0117,-0.0756 0.0864,-0.21372 0.0509,-0.15301 0.0367,-0.33255 0.13671,-0.47235 0.0475,-0.30793 0.12506,-0.46485 0.23805,-0.74592 0.0169,-0.042 0.0252,-0.087 0.0379,-0.13054 0,0 -0.49253,-3.92275 -0.49253,-3.92275 z" />
  </g>
</svg>
