<?xml version="1.0" encoding="UTF-8" standalone="no"?>
<!-- Created with Inkscape (http://www.inkscape.org/) -->

<svg
   width="306.20761mm"
   height="303.28149mm"
   viewBox="0 0 306.2076 303.28149"
   version="1.1"
   id="svg5"
   inkscape:version="1.1.1 (3bf5ae0d25, 2021-09-20)"
   sodipodi:docname="volvoxbase.svg"
   xmlns:inkscape="http://www.inkscape.org/namespaces/inkscape"
   xmlns:sodipodi="http://sodipodi.sourceforge.net/DTD/sodipodi-0.dtd"
   xmlns="http://www.w3.org/2000/svg"
   xmlns:svg="http://www.w3.org/2000/svg">
  <sodipodi:namedview
     id="namedview7"
     pagecolor="#ffffff"
     bordercolor="#666666"
     borderopacity="1.0"
     inkscape:pageshadow="2"
     inkscape:pageopacity="0.0"
     inkscape:pagecheckerboard="0"
     inkscape:document-units="mm"
     showgrid="false"
     inkscape:zoom="0.72337262"
     inkscape:cx="553.65657"
     inkscape:cy="513.56658"
     inkscape:window-width="1920"
     inkscape:window-height="1001"
     inkscape:window-x="1911"
     inkscape:window-y="116"
     inkscape:window-maximized="1"
     inkscape:current-layer="layer3"
     fit-margin-top="100"
     fit-margin-left="100"
     fit-margin-right="100"
     fit-margin-bottom="100"
     lock-margins="true" />
  <defs
     id="defs2" />
  <g
     inkscape:label="Layer 1"
     inkscape:groupmode="layer"
     id="layer1"
     style="display:inline"
     transform="translate(63.308859,42.826101)">
    <ellipse
       style="fill:#e3f4d7;stroke:#000000;stroke-width:1.965;stroke-miterlimit:4;stroke-dasharray:none;stroke-opacity:1"
       id="path55"
       cx="89.794945"
       cy="108.81465"
       rx="52.121304"
       ry="50.658253"
       inkscape:export-filename="D:\Godot\Amaeba\assets\volvox1.png"
       inkscape:export-xdpi="96"
       inkscape:export-ydpi="96" />
  </g>
  <g
     inkscape:groupmode="layer"
     id="layer2"
     inkscape:label="Layer 2"
     style="display:inline"
     transform="translate(63.308859,42.826101)">
    <ellipse
       style="fill:#ff6600;stroke-width:0.264583"
       id="path244"
       cx="101.86514"
       cy="141.73338"
       rx="9.6927347"
       ry="10.058497"
       inkscape:export-filename="D:\Godot\Amaeba\assets\volvox1.png"
       inkscape:export-xdpi="96"
       inkscape:export-ydpi="96" />
    <ellipse
       style="fill:#aade87;stroke-width:0.264583"
       id="path246"
       cx="63.277092"
       cy="134.78386"
       rx="2.9261084"
       ry="3.4747536"
       inkscape:export-filename="D:\Godot\Amaeba\assets\volvox1.png"
       inkscape:export-xdpi="96"
       inkscape:export-ydpi="96" />
    <ellipse
       style="fill:#ff6600;stroke-width:0.264583"
       id="path248"
       cx="112.28941"
       cy="105.70567"
       rx="8.0467978"
       ry="8.4125614"
       inkscape:export-filename="D:\Godot\Amaeba\assets\volvox1.png"
       inkscape:export-xdpi="96"
       inkscape:export-ydpi="96" />
    <ellipse
       style="fill:#338000;stroke-width:0.372982"
       id="path281"
       cx="96.544891"
       cy="120.46287"
       rx="8.3389826"
       ry="14.203225"
       transform="matrix(0.99265554,-0.12097509,-0.05014735,0.99874183,0,0)"
       inkscape:export-filename="D:\Godot\Amaeba\assets\volvox1.png"
       inkscape:export-xdpi="96"
       inkscape:export-ydpi="96" />
    <circle
       style="fill:#ffdd55;stroke-width:0.264583"
       id="path411"
       cx="77.907631"
       cy="81.565269"
       inkscape:export-filename="D:\Godot\Amaeba\assets\volvox1.png"
       inkscape:export-xdpi="96"
       inkscape:export-ydpi="96"
       r="4.7549262" />
    <circle
       style="fill:#ffdd55;stroke-width:0.264583"
       id="path413"
       cx="95.647163"
       cy="81.748154"
       inkscape:export-filename="D:\Godot\Amaeba\assets\volvox1.png"
       inkscape:export-xdpi="96"
       inkscape:export-ydpi="96"
       r="8.2296801" />
  </g>
  <g
     inkscape:groupmode="layer"
     id="layer3"
     inkscape:label="Layer 3">
    <path
       style="display:inline;fill:#aade87;stroke:#000000;stroke-width:1.965;stroke-miterlimit:4;stroke-dasharray:none;stroke-opacity:1"
       id="path1593"
       d="m 155.26169,98.577867 c -1.6345,-1.18163 -3.12746,-2.648573 -4.14358,-4.40732 -0.23023,-0.398479 -0.40303,-0.827481 -0.60454,-1.241222 -0.11402,-0.400937 -0.27697,-0.791088 -0.34202,-1.202811 -0.33982,-2.150507 0.59368,-4.332546 1.22956,-6.333849 0.46105,-1.662439 0.96545,-3.360684 0.74699,-5.106033 -0.1747,-1.395756 -0.37529,-1.660604 -0.89118,-3.005337 -1.62183,-3.358639 -4.0214,-6.198036 -6.48515,-8.958581 -2.59924,-2.72389 -5.22497,-5.415612 -7.57832,-8.358174 0,0 -3.18,1.908102 -3.18,1.908102 v 0 c 2.37975,2.927374 5.02078,5.616543 7.59744,8.368476 2.434,2.722297 4.85146,5.500629 6.39194,8.851752 0.18001,0.507012 0.40128,1.001218 0.54002,1.521042 0.57676,2.160954 0.0815,4.311967 -0.55601,6.394509 -0.65156,2.077838 -1.54761,4.31611 -1.13433,6.538444 0.0796,0.428382 0.26077,0.831522 0.39116,1.247281 0.21188,0.426714 0.39751,0.867506 0.63564,1.280147 1.03315,1.790253 2.52635,3.264089 4.06326,4.620677 0,0 3.31912,-2.117103 3.31912,-2.117103 z"
       inkscape:transform-center-x="10.160854"
       inkscape:transform-center-y="-71.595467" />
    <path
       style="display:inline;fill:#aade87;stroke:#000000;stroke-width:1.965;stroke-miterlimit:4;stroke-dasharray:none;stroke-opacity:1"
       id="path1595"
       d="m 155.79142,98.436151 c 1.42864,-1.724305 2.6388,-3.597522 3.84517,-5.480141 1.42158,-2.345646 2.36739,-4.926698 3.33591,-7.48033 0.69885,-1.689814 1.01573,-3.497939 1.52517,-5.245106 0.26363,-0.904094 0.57362,-1.711677 0.89515,-2.597637 1.30022,-3.27294 3.52467,-6.028814 5.63399,-8.805853 1.55107,-2.152258 3.44776,-3.999439 5.26158,-5.919574 1.56977,-1.667835 2.86753,-3.572889 4.04495,-5.530941 0.85792,-1.549097 0.41984,-0.790647 1.31253,-2.276344 0,0 -3.45711,1.539643 -3.45711,1.539643 v 0 c -0.87601,1.491985 -0.43831,0.734929 -1.31242,2.271557 -1.2063,1.952207 -2.54139,3.835613 -4.14297,5.487359 -1.77712,1.904366 -3.5755,3.790074 -5.11422,5.900641 -2.1188,2.814967 -4.31649,5.623517 -5.63192,8.927446 -0.38486,1.059244 -0.59112,1.566687 -0.89752,2.639243 -0.49572,1.735234 -0.82812,3.52286 -1.52614,5.196759 -0.99116,2.524761 -1.92149,5.093227 -3.36142,7.407665 -0.76758,1.184059 -1.5236,2.37787 -2.38243,3.499289 -0.44345,0.579023 -0.89526,1.061874 -1.32089,1.65131 -0.11088,0.153557 -0.1997,0.321893 -0.29955,0.482843 0,0 3.59214,-1.667829 3.59214,-1.667829 z"
       inkscape:transform-center-x="-12.124151"
       inkscape:transform-center-y="-74.32312" />
    <path
       style="display:inline;fill:#aade87;stroke:#000000;stroke-width:1.965;stroke-miterlimit:4;stroke-dasharray:none;stroke-opacity:1"
       id="path1593-1"
       d="m 188.6207,111.01419 c -0.51351,-1.95043 -0.73658,-4.03155 -0.40595,-6.03564 0.0749,-0.45407 0.21357,-0.89529 0.32036,-1.34293 0.16629,-0.38223 0.28791,-0.78718 0.49888,-1.14668 1.10193,-1.87773 3.20801,-2.971874 4.96938,-4.115177 1.41122,-0.992336 2.87866,-1.984842 3.8173,-3.472431 0.75064,-1.189622 0.76366,-1.521602 1.21821,-2.888289 0.87768,-3.624979 0.82477,-7.34214 0.67223,-11.039084 -0.28053,-3.754589 -0.60195,-7.501124 -0.55367,-11.268696 0,0 -3.66856,-0.543065 -3.66856,-0.543065 v 0 c -0.0182,3.772586 0.31662,7.526853 0.5619,11.288783 0.15383,3.648512 0.25931,7.329827 -0.67647,10.897377 -0.18259,0.506093 -0.32516,1.028466 -0.54778,1.51827 -0.92542,2.036161 -2.67314,3.384373 -4.48729,4.589458 -1.82204,1.192508 -3.93486,2.35388 -5.02559,4.333744 -0.21029,0.38161 -0.32608,0.80815 -0.48912,1.21222 -0.107,0.46425 -0.24323,0.92273 -0.32102,1.39276 -0.33746,2.03924 -0.11858,4.12585 0.20848,6.14958 0,0 3.90871,0.4698 3.90871,0.4698 z"
       inkscape:transform-center-x="-37.655266"
       inkscape:transform-center-y="-61.863836" />
    <path
       style="display:inline;fill:#aade87;stroke:#000000;stroke-width:1.965;stroke-miterlimit:4;stroke-dasharray:none;stroke-opacity:1"
       id="path1595-9"
       d="m 189.12004,111.24079 c 2.19832,-0.42618 4.32227,-1.10608 6.44926,-1.79566 2.58712,-0.91089 4.9559,-2.30562 7.32484,-3.66474 1.61238,-0.8626 3.00462,-2.05902 4.50701,-3.08613 0.77743,-0.53149 1.52946,-0.95896 2.34015,-1.43969 3.08172,-1.704598 6.54969,-2.423098 9.9421,-3.231012 2.5645,-0.679253 5.20254,-0.903409 7.82282,-1.236534 2.27157,-0.292984 4.48343,-0.941907 6.6359,-1.708158 1.64604,-0.652906 0.82618,-0.344682 2.45886,-0.926526 0,0 -3.64893,-1.003681 -3.64893,-1.003681 v 0 c -1.62378,0.597289 -0.8051,0.289902 -2.45574,0.922896 -2.17109,0.743402 -4.39806,1.351911 -6.68401,1.612271 -2.5819,0.34423 -5.16841,0.66054 -7.69692,1.315406 -3.42379,0.831218 -6.90451,1.607409 -10.01765,3.326308 -0.96959,0.57447 -1.451,0.83579 -2.36839,1.47034 -1.48421,1.0266 -2.87543,2.19732 -4.47707,3.04815 -2.36811,1.32244 -4.71694,2.71726 -7.29845,3.59239 -1.34458,0.4281 -2.68643,0.87106 -4.06179,1.19284 -0.71015,0.16614 -1.36574,0.25263 -2.06872,0.43813 -0.18314,0.0483 -0.3586,0.12207 -0.53791,0.18311 0,0 3.83464,0.99029 3.83464,0.99029 z"
       inkscape:transform-center-x="-56.531386"
       inkscape:transform-center-y="-49.757306" />
    <path
       style="display:inline;fill:#aade87;stroke:#000000;stroke-width:1.965;stroke-miterlimit:4;stroke-dasharray:none;stroke-opacity:1"
       id="path1593-1-5"
       d="m 207.75105,150.91276 c 1.13513,-1.66713 2.55944,-3.2008 4.28888,-4.26606 0.39183,-0.24136 0.8158,-0.42617 1.2237,-0.63925 0.39757,-0.12526 0.78299,-0.29914 1.19271,-0.37576 2.14008,-0.40025 4.34754,0.47144 6.36595,1.05071 1.67477,0.41405 3.38654,0.87042 5.12505,0.60289 1.39029,-0.21393 1.64938,-0.4219 2.97905,-0.97546 3.31163,-1.71577 6.08232,-4.19434 8.7724,-6.73485 2.64961,-2.67493 5.26631,-5.37542 8.14144,-7.8107 0,0 -1.9969,-3.125 -1.9969,-3.125 v 0 c -2.85918,2.46127 -5.47293,5.17696 -8.15121,7.83009 -2.65267,2.5097 -5.36181,5.00444 -8.66822,6.63868 -0.50175,0.19422 -0.98953,0.42933 -1.50524,0.58264 -2.14385,0.6374 -4.30796,0.20286 -6.40763,-0.37571 -2.09536,-0.59278 -4.35798,-1.42544 -6.56779,-0.94975 -0.42597,0.0917 -0.82385,0.28409 -1.23577,0.42613 -0.42057,0.22382 -0.85597,0.42179 -1.26174,0.67144 -1.76044,1.08316 -3.19165,2.61727 -4.50442,4.19178 0,0 2.20974,3.25818 2.20974,3.25818 z"
       inkscape:transform-center-x="-71.278965"
       inkscape:transform-center-y="-12.176003" />
    <path
       style="display:inline;fill:#aade87;stroke:#000000;stroke-width:1.965;stroke-miterlimit:4;stroke-dasharray:none;stroke-opacity:1"
       id="path1595-9-6"
       d="m 207.90762,151.43829 c 1.76386,1.37951 3.67041,2.53644 5.58625,3.68932 2.38475,1.35496 4.99142,2.2277 7.57131,3.12393 1.70882,0.65098 3.52517,0.91681 5.28599,1.37685 0.91116,0.23806 1.72715,0.52519 2.62181,0.82165 3.30825,1.20753 6.12568,3.35349 8.96102,5.38376 2.19508,1.48985 4.09495,3.33376 6.0654,5.09279 1.71139,1.52218 3.65223,2.76578 5.64266,3.88759 1.57265,0.81395 0.80215,0.3974 2.3124,1.24789 0,0 -1.63638,-3.41237 -1.63638,-3.41237 v 0 c -1.51607,-0.83365 -0.74699,-0.41743 -2.30762,-1.24792 -1.9854,-1.15085 -3.90566,-2.43237 -5.60186,-3.98681 -1.95365,-1.72277 -3.88926,-3.46734 -6.04233,-4.94602 -2.87351,-2.03868 -5.74285,-4.15641 -9.0825,-5.37827 -1.06967,-0.35488 -1.58271,-0.54677 -2.66347,-0.82285 -1.74851,-0.44665 -3.54479,-0.72857 -5.23767,-1.37918 -2.55168,-0.91966 -5.14532,-1.77729 -7.4994,-3.15147 -1.2052,-0.73392 -2.41984,-1.45603 -3.56499,-2.28294 -0.59128,-0.42697 -1.08667,-0.865 -1.68785,-1.27386 -0.1566,-0.10654 -0.3274,-0.19055 -0.49109,-0.28584 0,0 1.76832,3.54375 1.76832,3.54375 z"
       inkscape:transform-center-x="-74.635079"
       inkscape:transform-center-y="10.026279" />
    <path
       style="display:inline;fill:#aade87;stroke:#000000;stroke-width:1.965;stroke-miterlimit:4;stroke-dasharray:none;stroke-opacity:1"
       id="path1593-1-7"
       d="m 189.71139,191.95322 c 2.00562,-0.21294 4.09655,-0.11903 6.02769,0.51059 0.43754,0.14264 0.85274,0.34638 1.27911,0.51957 0.35272,0.22213 0.73465,0.40353 1.05815,0.6664 1.68969,1.37297 2.45308,3.62018 3.31716,5.53406 0.76772,1.54495 1.52714,3.14549 2.85584,4.29811 1.06256,0.92175 1.38876,0.98478 2.67109,1.64059 3.45076,1.41527 7.13325,1.92457 10.8108,2.33232 3.75388,0.28994 7.50596,0.53824 11.223,1.15518 0,0 1.09108,-3.5444 1.09108,-3.5444 v 0 c -3.72653,-0.58796 -7.48829,-0.82419 -11.24409,-1.15008 -3.62987,-0.39916 -7.28487,-0.85107 -10.67009,-2.3151 -0.4727,-0.25696 -0.96753,-0.47681 -1.41808,-0.77088 -1.87298,-1.22242 -2.94166,-3.15377 -3.85883,-5.12916 -0.90354,-1.98129 -1.73238,-4.24533 -3.52472,-5.62266 -0.34546,-0.26553 -0.74961,-0.44443 -1.12441,-0.66665 -0.44275,-0.17591 -0.87539,-0.37984 -1.32827,-0.52775 -1.96485,-0.64168 -4.06058,-0.74056 -6.11049,-0.723 0,0 -1.05494,3.79286 -1.05494,3.79286 z"
       inkscape:transform-center-x="-55.466545"
       inkscape:transform-center-y="46.432249" />
    <path
       style="display:inline;fill:#aade87;stroke:#000000;stroke-width:1.965;stroke-miterlimit:4;stroke-dasharray:none;stroke-opacity:1"
       id="path1595-9-5"
       d="m 189.41195,192.41259 c 0.0892,2.23748 0.44036,4.43977 0.80068,6.64653 0.50957,2.69504 1.53041,5.24735 2.51602,7.79443 0.6091,1.7242 1.58144,3.28121 2.36978,4.92153 0.40793,0.84881 0.71688,1.65679 1.06961,2.5308 1.21944,3.30388 1.40574,6.8406 1.69185,10.31613 0.284,2.63768 0.10703,5.27931 0.0405,7.91984 -0.0536,2.28976 0.25372,4.57427 0.68598,6.8178 0.39672,1.72579 0.21591,0.86877 0.5444,2.57062 0,0 1.54345,-3.45541 1.54345,-3.45541 v 0 c -0.34511,-1.69538 -0.16494,-0.83966 -0.54129,-2.56699 -0.40686,-2.25848 -0.67193,-4.55182 -0.58393,-6.85087 0.0498,-2.60427 0.12789,-5.20888 -0.13744,-7.8073 -0.3044,-3.51007 -0.54581,-7.0681 -1.77464,-10.4052 -0.42139,-1.04526 -0.60697,-1.56062 -1.09564,-2.56335 -0.79058,-1.62227 -1.73767,-3.1744 -2.33676,-4.8862 -0.94948,-2.54072 -1.97342,-5.07332 -2.44849,-7.75742 -0.22004,-1.39382 -0.45519,-2.78719 -0.56548,-4.19538 -0.0569,-0.7271 -0.0434,-1.38823 -0.12055,-2.11117 -0.0201,-0.18833 -0.0665,-0.37292 -0.0997,-0.5594 0,0 -1.55827,3.64101 -1.55827,3.64101 z"
       inkscape:transform-center-x="-40.63128"
       inkscape:transform-center-y="63.398892" />
    <path
       style="display:inline;fill:#aade87;stroke:#000000;stroke-width:1.965;stroke-miterlimit:4;stroke-dasharray:none;stroke-opacity:1"
       id="path1593-1-2"
       d="m 116.79626,110.89118 c -2.00058,0.25606 -4.09305,0.20719 -6.03729,-0.38071 -0.44051,-0.13319 -0.86,-0.32795 -1.29,-0.49192 -0.35742,-0.21449 -0.74316,-0.38763 -1.07224,-0.64347 -1.71886,-1.33628 -2.53045,-3.56653 -3.43553,-5.46137 -0.80081,-1.52806 -1.5945,-3.11189 -2.9477,-4.235628 -1.08216,-0.89867 -1.40964,-0.95466 -2.705794,-1.582718 -3.480433,-1.340662 -7.173029,-1.770565 -10.858504,-2.099057 -3.759246,-0.209065 -7.515817,-0.376541 -11.245265,-0.91332 0,0 -1.014527,3.567065 -1.014527,3.567065 v 0 c 3.738319,0.50761 7.504293,0.6628 11.266243,0.90777 3.637622,0.32093 7.301503,0.694048 10.717454,2.084868 0.478119,0.24672 0.977569,0.45587 1.434349,0.74017 1.898854,1.18182 3.008874,3.08972 3.968354,5.04491 0.94598,1.96138 1.82336,4.20705 3.64494,5.54548 0.35109,0.25803 0.759,0.42819 1.1385,0.64229 0.44644,0.16634 0.88336,0.36091 1.33932,0.49904 1.97821,0.59923 4.07558,0.65297 6.12464,0.59129 0,0 0.97305,-3.81469 0.97305,-3.81469 z"
       inkscape:transform-center-x="55.72439"
       inkscape:transform-center-y="-46.316211" />
    <path
       style="display:inline;fill:#aade87;stroke:#000000;stroke-width:1.965;stroke-miterlimit:4;stroke-dasharray:none;stroke-opacity:1"
       id="path1595-9-3"
       d="m 117.08574,110.42547 c -0.13731,-2.23504 -0.53584,-4.42926 -0.94357,-6.62775 -0.56747,-2.68345 -1.64301,-5.213188 -2.68323,-7.738466 -0.64607,-1.710684 -1.65171,-3.246408 -2.47517,-4.86938 -0.42612,-0.839826 -0.75238,-1.640969 -1.12385,-2.507187 -1.29028,-3.276864 -1.55267,-6.808748 -1.91353,-10.277314 -0.34073,-2.630961 -0.22065,-5.275783 -0.21094,-7.917136 0.004,-2.290382 -0.35213,-4.567748 -0.83258,-6.801452 -0.43379,-1.716849 -0.23456,-0.863924 -0.59962,-2.558303 0,0 -1.4687,3.487832 -1.4687,3.487832 v 0 c 0.38153,1.687559 0.18297,0.835912 0.59641,2.554736 0.45539,2.249203 0.76977,4.536307 0.73128,6.836715 0.006,2.604738 -0.0157,5.210425 0.30547,7.802534 0.3799,3.502705 0.69784,7.054718 1.99822,10.364592 0.44379,1.035939 0.64043,1.547189 1.15057,2.539166 0.82532,1.604879 1.8056,3.136257 2.4414,4.834765 1.00395,2.519688 2.08218,5.029668 2.61491,7.702908 0.25,1.38877 0.51509,2.77675 0.65567,4.18224 0.0726,0.7257 0.0733,1.38697 0.16597,2.10808 0.0241,0.18786 0.0745,0.37141 0.11176,0.55712 0,0 1.47953,-3.6737 1.47953,-3.6737 z"
       inkscape:transform-center-x="41.257082"
       inkscape:transform-center-y="-63.606677" />
    <path
       style="display:inline;fill:#aade87;stroke:#000000;stroke-width:1.965;stroke-miterlimit:4;stroke-dasharray:none;stroke-opacity:1"
       id="path1593-1-2-5"
       d="m 98.555623,149.98325 c -1.166046,1.64566 -2.618715,3.15251 -4.367718,4.18531 -0.396266,0.23401 -0.823612,0.41087 -1.235415,0.61631 -0.399842,0.11782 -0.788427,0.28447 -1.199513,0.35344 -2.147171,0.36025 -4.337983,-0.55246 -6.345252,-1.16927 -1.666745,-0.44523 -3.369713,-0.93345 -5.112896,-0.6984 -1.39404,0.18796 -1.656965,0.39105 -2.996745,0.91972 -3.343063,1.65369 -6.159505,4.08015 -8.896502,6.57003 -2.699057,2.62503 -5.365685,5.27625 -8.28574,7.65747 0,0 1.938257,3.16169 1.938257,3.16169 v 0 c 2.904593,-2.40749 5.568548,-5.07394 8.295853,-7.67665 2.69903,-2.45978 5.454245,-4.90355 8.790573,-6.47584 0.505275,-0.18481 0.997348,-0.41077 1.515838,-0.55445 2.155369,-0.5973 4.311004,-0.12246 6.399518,0.49518 2.083929,0.63176 4.330632,1.50649 6.548932,1.0721 0.4276,-0.0837 0.829002,-0.26867 1.243506,-0.403 0.424677,-0.21593 0.863685,-0.40575 1.274047,-0.64778 1.780341,-1.05014 3.239911,-2.55729 4.581834,-4.10703 0,0 -2.148577,-3.29883 -2.148577,-3.29883 z"
       inkscape:transform-center-x="71.807212"
       inkscape:transform-center-y="9.5608924" />
    <path
       style="display:inline;fill:#aade87;stroke:#000000;stroke-width:1.965;stroke-miterlimit:4;stroke-dasharray:none;stroke-opacity:1"
       id="path1595-9-3-3"
       d="m 98.408881,149.4549 c -1.737818,-1.41218 -3.622453,-2.60448 -5.516459,-3.7929 -2.359058,-1.3992 -4.948981,-2.32043 -7.511711,-3.26463 -1.696376,-0.68274 -3.507438,-0.98241 -5.259374,-1.47523 -0.90656,-0.255 -1.71705,-0.55731 -2.606031,-0.8704 -3.285157,-1.26903 -6.062053,-3.46718 -8.859027,-5.55 -2.166915,-1.53053 -4.03204,-3.40957 -5.969337,-5.20504 -1.682878,-1.55365 -3.599992,-2.83344 -5.569145,-3.99219 -1.557193,-0.84314 -0.794608,-0.4123 -2.288731,-1.29081 0,0 1.572447,3.4423 1.572447,3.4423 v 0 c 1.500255,0.86178 0.739066,0.4313 2.28393,1.29076 1.963594,1.18768 3.859617,2.5048 5.52651,4.09061 1.92099,1.75912 3.823926,3.53927 5.949007,5.05789 2.834982,2.09191 5.664311,4.26282 8.980591,5.54676 1.062856,0.37478 1.572239,0.57621 2.647665,0.87239 1.739874,0.4792 3.530565,0.79459 5.211032,1.47665 2.534056,0.96711 5.111261,1.87297 7.439285,3.29083 1.191311,0.75628 2.392258,1.50092 3.521791,2.34905 0.583225,0.4379 1.070353,0.8851 1.663787,1.30513 0.15457,0.10945 0.323775,0.19663 0.485669,0.29494 0,0 -1.701899,-3.57611 -1.701899,-3.57611 z"
       inkscape:transform-center-x="74.74731"
       inkscape:transform-center-y="-12.698148" />
    <path
       style="display:inline;fill:#aade87;stroke:#000000;stroke-width:1.965;stroke-miterlimit:4;stroke-dasharray:none;stroke-opacity:1"
       id="path1593-1-2-5-8"
       d="m 113.28931,186.78802 c 0.42961,1.97061 0.56348,4.05936 0.14743,6.04748 -0.0943,0.45044 -0.25167,0.88533 -0.37751,1.328 -0.18249,0.37477 -0.32132,0.77414 -0.54747,1.12428 -1.18124,1.82889 -3.33218,2.83194 -5.14084,3.89888 -1.45237,0.93106 -2.96092,1.8599 -3.96232,3.30597 -0.80084,1.15644 -0.82805,1.48755 -1.34064,2.83356 -1.03192,3.58412 -1.13804,7.30014 -1.14376,11.00022 0.11968,3.76316 0.28057,7.52002 0.0712,11.28208 0,0 3.64196,0.69946 3.64196,0.69946 v 0 c 0.17955,-3.76835 0.006,-7.5335 -0.0785,-11.30248 0.002,-3.65174 0.0544,-7.3342 1.14193,-10.85848 0.20408,-0.4978 0.36886,-1.0136 0.61222,-1.49344 1.01166,-1.99473 2.81545,-3.26695 4.67949,-4.39334 1.87137,-1.11349 4.03193,-2.18343 5.20635,-4.11483 0.2264,-0.37228 0.36034,-0.79346 0.54052,-1.1902 0.12676,-0.45924 0.28247,-0.91147 0.3803,-1.37774 0.42436,-2.02295 0.29492,-4.11701 0.0547,-6.15288 0,0 -3.88504,-0.63654 -3.88504,-0.63654 z"
       inkscape:transform-center-x="41.214185"
       inkscape:transform-center-y="59.564177" />
    <path
       style="display:inline;fill:#aade87;stroke:#000000;stroke-width:1.965;stroke-miterlimit:4;stroke-dasharray:none;stroke-opacity:1"
       id="path1595-9-3-3-8"
       d="m 112.80013,186.54027 c -2.21455,0.33177 -4.36563,0.92019 -6.52017,1.51817 -2.62371,0.79941 -5.04997,2.09154 -7.474886,3.34809 -1.647792,0.79285 -3.089927,1.92863 -4.634882,2.89053 -0.799443,0.49776 -1.569075,0.89267 -2.399579,1.33829 -3.151812,1.57123 -6.647334,2.14074 -10.0712,2.80282 -2.591203,0.56895 -5.236413,0.68006 -7.868541,0.90082 -2.282008,0.19582 -4.519615,0.74927 -6.70289,1.42275 -1.672456,0.58192 -0.840173,0.30904 -2.496242,0.82052 0,0 3.602658,1.15883 3.602658,1.15883 v 0 c 1.647844,-0.5273 0.816769,-0.2552 2.492969,-0.81701 2.200898,-0.64987 4.451862,-1.16258 6.746851,-1.32492 2.594285,-0.23321 5.191936,-0.43891 7.746142,-0.98499 3.456208,-0.68402 6.966945,-1.31063 10.150749,-2.8948 0.993276,-0.53247 1.485432,-0.77295 2.429113,-1.3677 1.526764,-0.96218 2.966778,-2.07231 4.603348,-2.85386 2.4225,-1.21994 4.82885,-2.51303 7.44542,-3.27693 1.36167,-0.3702 2.72123,-0.75537 4.1091,-1.01802 0.7166,-0.13564 1.37528,-0.19402 2.08556,-0.34926 0.18504,-0.0404 0.36348,-0.10661 0.54523,-0.15994 0,0 -3.78875,-1.15339 -3.78875,-1.15339 z"
       inkscape:transform-center-x="59.76448"
       inkscape:transform-center-y="46.656875" />
    <path
       style="display:inline;fill:#aade87;stroke:#000000;stroke-width:1.965;stroke-miterlimit:4;stroke-dasharray:none;stroke-opacity:1"
       id="path1593-1-2-5-2"
       d="m 154.34008,204.85439 c 1.7154,1.06079 3.31019,2.41632 4.4504,4.09727 0.25835,0.38085 0.4616,0.79629 0.69241,1.19443 0.1426,0.39169 0.33324,0.76909 0.4278,1.17505 0.49389,2.12042 -0.27995,4.36405 -0.76995,6.40598 -0.34007,1.69134 -0.72077,3.42152 -0.37711,5.14658 0.27482,1.37955 0.49396,1.62925 1.10543,2.93333 1.85963,3.23303 4.45756,5.89213 7.11382,8.46797 2.78877,2.52952 5.60165,5.02503 8.16091,7.79036 0,0 3.03422,-2.13229 3.03422,-2.13229 v 0 c -2.58452,-2.74826 -5.41243,-5.24015 -8.18069,-7.79925 -2.62384,-2.53983 -5.23522,-5.13674 -7.01319,-8.36815 -0.21606,-0.49272 -0.47237,-0.96969 -0.64821,-1.47818 -0.73099,-2.11377 -0.39197,-4.29489 0.0938,-6.41796 0.50013,-2.11937 1.23257,-4.41641 0.66023,-6.60318 -0.11029,-0.42152 -0.32002,-0.81057 -0.48002,-1.21585 -0.24208,-0.41034 -0.459,-0.83661 -0.72623,-1.23102 -1.15948,-1.71114 -2.755,-3.07355 -4.38567,-4.31587 0,0 -3.15793,2.35078 -3.15793,2.35078 z"
       inkscape:transform-center-x="-14.041811"
       inkscape:transform-center-y="71.063977" />
    <path
       style="display:inline;fill:#aade87;stroke:#000000;stroke-width:1.965;stroke-miterlimit:4;stroke-dasharray:none;stroke-opacity:1"
       id="path1595-9-3-3-5"
       d="m 153.82195,205.0339 c -1.30068,1.82277 -2.37272,3.77832 -3.4403,5.74298 -1.24885,2.44198 -2.00622,5.08447 -2.78821,7.70126 -0.57526,1.73577 -0.76102,3.56204 -1.14326,5.34137 -0.19777,0.92074 -0.44878,1.74856 -0.70563,2.65539 -1.06099,3.35813 -3.08107,6.26712 -4.9848,9.18894 -1.39195,2.25844 -3.1506,4.23748 -4.82133,6.28333 -1.44531,1.77679 -2.60264,3.77023 -3.6359,5.80803 -0.74405,1.60689 -0.36177,0.81884 -1.14507,2.36501 0,0 3.33716,-1.78476 3.33716,-1.78476 v 0 c 0.76622,-1.55123 0.38421,-0.7646 1.14532,-2.36022 1.06249,-2.03406 2.25839,-4.00878 3.7368,-5.77163 1.63547,-2.0273 3.29306,-4.03789 4.67574,-6.25383 1.91042,-2.96032 3.90004,-5.91994 4.97396,-9.31006 0.30754,-1.08423 0.47671,-1.60521 0.70501,-2.69706 0.3694,-1.76645 0.57212,-3.57337 1.1477,-5.29322 0.80665,-2.58961 1.54948,-5.21844 2.81889,-7.63062 0.68026,-1.2363 1.3483,-2.48149 2.12409,-3.66187 0.40055,-0.60949 0.81639,-1.12364 1.19847,-1.74219 0.0996,-0.16112 0.17598,-0.33545 0.26397,-0.50318 0,0 -3.46261,1.92233 -3.46261,1.92233 z"
       inkscape:transform-center-x="7.9962246"
       inkscape:transform-center-y="75.395381" />
  </g>
</svg>
